%FSTAX53Y53*%
%MOMM*%
%SFA1B1*%

%IPPOS*%
%AMD1010*
%
%ADD10C,1.019998*%
%ADD11C,0.250000*%
%ADD12C,2.999994*%
%ADD13R,2.999994X2.999994*%
%ADD14R,1.499997X1.499997*%
%ADD15C,1.499997*%
%ADD16R,1.599997X1.599997*%
%ADD17C,1.599997*%
%ADD18C,1.399997*%
%ADD19R,1.499997X1.499997*%
%ADD20C,2.999994*%
%ADD21R,2.999994X2.999994*%
%ADD22C,1.199998*%
%ADD23R,2.999994X2.999994*%
%ADD24R,1.199998X1.199998*%
%ADD25C,1.999996*%
%ADD26R,1.999996X1.999996*%
%ADD27C,5.079990*%
%ADD28C,1.269997*%
%LNmain_board_pcb-1*%
%LPD*%
G36*
X00144729Y00054609D02*
X00076149D01*
Y00057419*
X00076199Y00057459*
X00076449Y00057489*
X00076679Y00057589*
X00076879Y00057739*
X00077029Y00057939*
X00077129Y00058169*
X00077149Y00058289*
X00076199*
Y00058549*
X00077149*
X00077129Y00058669*
X00077029Y00058899*
X00076879Y00059099*
X00076679Y00059249*
X00076449Y00059349*
X00076199Y00059379*
X00076149Y00059419*
Y00068869*
X00070109Y00074929*
X00067259*
Y00087629*
Y00088899*
X00068529Y00090169*
Y00105409*
X00067259Y00106679*
Y00124459*
X00144729*
Y00054609*
G37*
%LNmain_board_pcb-2*%
%LPC*%
G36*
X00129289Y00083309D02*
X00129019Y00083269D01*
X00128779Y00083169*
X00128569Y00083009*
X00128409Y00082799*
X00128309Y00082559*
X00128269Y00082299*
X00128309Y00082029*
X00128409Y00081789*
X00128569Y00081579*
X00128779Y00081419*
X00129019Y00081319*
X00129289Y00081279*
X00129549Y00081319*
X00129789Y00081419*
X00129999Y00081579*
X00130159Y00081789*
X00130259Y00082029*
X00130299Y00082299*
X00130259Y00082559*
X00130159Y00082799*
X00129999Y00083009*
X00129789Y00083169*
X00129549Y00083269*
X00129289Y00083309*
G37*
G36*
X00089279Y00082169D02*
X00088409D01*
X00088429Y00082029*
X00088529Y00081789*
X00088689Y00081579*
X00088899Y00081419*
X00089149Y00081319*
X00089279Y00081299*
Y00082169*
G37*
G36*
X00094489Y00083309D02*
X00094229Y00083269D01*
X00093979Y00083169*
X00093769Y00083009*
X00093609Y00082799*
X00093509Y00082559*
X00093479Y00082299*
X00093509Y00082029*
X00093609Y00081789*
X00093769Y00081579*
X00093979Y00081419*
X00094229Y00081319*
X00094489Y00081279*
X00094749Y00081319*
X00094989Y00081419*
X00095199Y00081579*
X00095359Y00081789*
X00095469Y00082029*
X00095499Y00082299*
X00095469Y00082559*
X00095359Y00082799*
X00095199Y00083009*
X00094989Y00083169*
X00094749Y00083269*
X00094489Y00083309*
G37*
G36*
X00121529Y00081659D02*
X00120779D01*
Y00080909*
X00120879Y00080919*
X00121099Y00081009*
X00121279Y00081149*
X00121429Y00081339*
X00121519Y00081559*
X00121529Y00081659*
G37*
G36*
X00091949Y00083309D02*
X00091689Y00083269D01*
X00091439Y00083169*
X00091229Y00083009*
X00091069Y00082799*
X00090969Y00082559*
X00090939Y00082299*
X00090969Y00082029*
X00091069Y00081789*
X00091229Y00081579*
X00091439Y00081419*
X00091689Y00081319*
X00091949Y00081279*
X00092209Y00081319*
X00092449Y00081419*
X00092659Y00081579*
X00092819Y00081789*
X00092929Y00082029*
X00092959Y00082299*
X00092929Y00082559*
X00092819Y00082799*
X00092659Y00083009*
X00092449Y00083169*
X00092209Y00083269*
X00091949Y00083309*
G37*
G36*
X00137539Y00082779D02*
X00137409Y00082769D01*
X00137159Y00082659*
X00136949Y00082499*
X00136789Y00082289*
X00136689Y00082049*
X00136669Y00081919*
X00137539*
Y00082779*
G37*
G36*
X00137789D02*
Y00081919D01*
X00138659*
X00138649Y00082049*
X00138539Y00082289*
X00138379Y00082499*
X00138169Y00082659*
X00137929Y00082769*
X00137789Y00082779*
G37*
G36*
X00120779Y00082669D02*
Y00081919D01*
X00121529*
X00121519Y00082019*
X00121429Y00082239*
X00121279Y00082419*
X00121099Y00082559*
X00120879Y00082649*
X00120779Y00082669*
G37*
G36*
X00090399Y00082169D02*
X00089539D01*
Y00081299*
X00089669Y00081319*
X00089909Y00081419*
X00090119Y00081579*
X00090279Y00081789*
X00090389Y00082029*
X00090399Y00082169*
G37*
G36*
X00120519Y00082669D02*
X00120419Y00082649D01*
X00120199Y00082559*
X00120019Y00082419*
X00119869Y00082239*
X00119779Y00082019*
X00119769Y00081919*
X00120519*
Y00082669*
G37*
G36*
X00137539Y00080239D02*
X00137409Y00080229D01*
X00137159Y00080119*
X00136949Y00079959*
X00136789Y00079749*
X00136689Y00079509*
X00136669Y00079379*
X00137539*
Y00080239*
G37*
G36*
X00137789D02*
Y00079379D01*
X00138659*
X00138649Y00079509*
X00138539Y00079749*
X00138379Y00079959*
X00138169Y00080119*
X00137929Y00080229*
X00137789Y00080239*
G37*
G36*
X00129289Y00080769D02*
X00129019Y00080729D01*
X00128779Y00080629*
X00128569Y00080469*
X00128409Y00080259*
X00128309Y00080019*
X00128269Y00079759*
X00128309Y00079489*
X00128409Y00079249*
X00128569Y00079039*
X00128779Y00078879*
X00129019Y00078779*
X00129289Y00078739*
X00129549Y00078779*
X00129789Y00078879*
X00129999Y00079039*
X00130159Y00079249*
X00130259Y00079489*
X00130299Y00079759*
X00130259Y00080019*
X00130159Y00080259*
X00129999Y00080469*
X00129789Y00080629*
X00129549Y00080729*
X00129289Y00080769*
G37*
G36*
X00137539Y00079119D02*
X00136669D01*
X00136689Y00078989*
X00136789Y00078739*
X00136949Y00078529*
X00137159Y00078369*
X00137409Y00078269*
X00137539Y00078249*
Y00079119*
G37*
G36*
X00138659D02*
X00137789D01*
Y00078249*
X00137929Y00078269*
X00138169Y00078369*
X00138379Y00078529*
X00138539Y00078739*
X00138649Y00078989*
X00138659Y00079119*
G37*
G36*
Y00081659D02*
X00137789D01*
Y00080789*
X00137929Y00080809*
X00138169Y00080909*
X00138379Y00081069*
X00138539Y00081279*
X00138649Y00081529*
X00138659Y00081659*
G37*
G36*
X00120519D02*
X00119769D01*
X00119779Y00081559*
X00119869Y00081339*
X00120019Y00081149*
X00120199Y00081009*
X00120419Y00080919*
X00120519Y00080909*
Y00081659*
G37*
G36*
X00137539D02*
X00136669D01*
X00136689Y00081529*
X00136789Y00081279*
X00136949Y00081069*
X00137159Y00080909*
X00137409Y00080809*
X00137539Y00080789*
Y00081659*
G37*
G36*
X00135129Y00082799D02*
X00134869Y00082769D01*
X00134619Y00082659*
X00134409Y00082499*
X00134249Y00082289*
X00134149Y00082049*
X00134119Y00081789*
X00134149Y00081529*
X00134249Y00081279*
X00134409Y00081069*
X00134619Y00080909*
X00134869Y00080809*
X00135129Y00080779*
X00135389Y00080809*
X00135629Y00080909*
X00135839Y00081069*
X00135999Y00081279*
X00136109Y00081529*
X00136139Y00081789*
X00136109Y00082049*
X00135999Y00082289*
X00135839Y00082499*
X00135629Y00082659*
X00135389Y00082769*
X00135129Y00082799*
G37*
G36*
X00140209D02*
X00139949Y00082769D01*
X00139699Y00082659*
X00139489Y00082499*
X00139329Y00082289*
X00139229Y00082049*
X00139199Y00081789*
X00139229Y00081529*
X00139329Y00081279*
X00139489Y00081069*
X00139699Y00080909*
X00139949Y00080809*
X00140209Y00080779*
X00140469Y00080809*
X00140709Y00080909*
X00140919Y00081069*
X00141079Y00081279*
X00141189Y00081529*
X00141219Y00081789*
X00141189Y00082049*
X00141079Y00082289*
X00140919Y00082499*
X00140709Y00082659*
X00140469Y00082769*
X00140209Y00082799*
G37*
G36*
X00083059Y00091689D02*
X00082799Y00091659D01*
X00082549Y00091549*
X00082339Y00091389*
X00082179Y00091179*
X00082079Y00090939*
X00082049Y00090679*
X00082079Y00090419*
X00082179Y00090169*
X00082339Y00089959*
X00082549Y00089799*
X00082799Y00089699*
X00083059Y00089669*
X00083319Y00089699*
X00083559Y00089799*
X00083769Y00089959*
X00083929Y00090169*
X00084039Y00090419*
X00084069Y00090679*
X00084039Y00090939*
X00083929Y00091179*
X00083769Y00091389*
X00083559Y00091549*
X00083319Y00091659*
X00083059Y00091689*
G37*
G36*
X00080389Y00090549D02*
X00079519D01*
X00079539Y00090419*
X00079639Y00090169*
X00079799Y00089959*
X00080009Y00089799*
X00080259Y00089699*
X00080389Y00089679*
Y00090549*
G37*
G36*
X00129289Y00090929D02*
X00129019Y00090889D01*
X00128779Y00090789*
X00128569Y00090629*
X00128409Y00090419*
X00128309Y00090179*
X00128269Y00089919*
X00128309Y00089649*
X00128409Y00089409*
X00128569Y00089199*
X00128779Y00089039*
X00129019Y00088939*
X00129289Y00088899*
X00129549Y00088939*
X00129789Y00089039*
X00129999Y00089199*
X00130159Y00089409*
X00130259Y00089649*
X00130299Y00089919*
X00130259Y00090179*
X00130159Y00090419*
X00129999Y00090629*
X00129789Y00090789*
X00129549Y00090889*
X00129289Y00090929*
G37*
G36*
X00069849Y00119509D02*
X00069619Y00119479D01*
X00069399Y00119389*
X00069219Y00119249*
X00069069Y00119069*
X00068979Y00118849*
X00068949Y00118619*
X00068979Y00118389*
X00069069Y00118169*
X00069219Y00117979*
X00069399Y00117839*
X00069619Y00117749*
X00069849Y00117719*
X00070079Y00117749*
X00070299Y00117839*
X00070479Y00117979*
X00070629Y00118169*
X00070649Y00118229*
X00076039*
X00077589Y00116679*
Y00108749*
X00077529Y00108729*
X00077339Y00108579*
X00077199Y00108399*
X00077109Y00108179*
X00077079Y00107949*
X00077109Y00107719*
X00077199Y00107499*
X00077339Y00107319*
X00077529Y00107169*
X00077589Y00107149*
Y00105409*
X00077619Y00105259*
X00077699Y00105139*
X00078349Y00104489*
Y00088809*
X00077139Y00087589*
X00076839Y00087629*
X00076809Y00087859*
X00076719Y00088079*
X00076579Y00088259*
X00076389Y00088409*
X00076179Y00088499*
X00075949Y00088529*
X00075709Y00088499*
X00075499Y00088409*
X00075309Y00088259*
X00075169Y00088079*
X00075139Y00088019*
X00070359*
X00070229Y00087989*
X00070209*
X00070079Y00087899*
X00068309Y00086129*
X00068219Y00085999*
X00068189Y00085849*
Y00078739*
X00068219Y00078589*
X00068309Y00078469*
X00070589Y00076179*
X00070719Y00076099*
X00070869Y00076069*
X00092769*
X00092849Y00075829*
X00092839Y00075819*
X00092699Y00075629*
X00092609Y00075419*
X00092579Y00075179*
X00092609Y00074949*
X00092699Y00074739*
X00092839Y00074549*
X00093019Y00074409*
X00093239Y00074319*
X00093469Y00074289*
X00093699Y00074319*
X00093919Y00074409*
X00094109Y00074549*
X00094249Y00074739*
X00094269Y00074799*
X00097169*
X00097179Y00074699*
X00097269Y00074479*
X00097409Y00074299*
X00097599Y00074149*
X00097809Y00074059*
X00098039Y00074029*
X00098279Y00074059*
X00098489Y00074149*
X00098679Y00074299*
X00098819Y00074479*
X00098849Y00074539*
X00106169*
X00111019Y00069689*
Y00068229*
X00113029*
Y00070239*
X00111569*
X00106599Y00075199*
X00106479Y00075289*
X00106329Y00075319*
X00100969*
X00100959Y00075329*
X00100949Y00075569*
X00101069Y00075589*
X00101289Y00075679*
X00101469Y00075819*
X00101609Y00076009*
X00101699Y00076219*
X00101729Y00076449*
X00101699Y00076689*
X00101609Y00076899*
X00101469Y00077089*
X00101289Y00077229*
X00101069Y00077319*
X00100839Y00077349*
X00100609Y00077319*
X00100389Y00077229*
X00100199Y00077089*
X00100059Y00076899*
X00100039Y00076839*
X00094999*
X00094899Y00077079*
X00095209Y00077389*
X00095269Y00077369*
X00095499Y00077339*
X00095739Y00077369*
X00095949Y00077459*
X00096139Y00077599*
X00096279Y00077779*
X00096369Y00077999*
X00096399Y00078229*
X00096369Y00078459*
X00096279Y00078679*
X00096139Y00078869*
X00095949Y00079009*
X00095739Y00079099*
X00095499Y00079129*
X00095269Y00079099*
X00095059Y00079009*
X00094869Y00078869*
X00094729Y00078679*
X00094639Y00078459*
X00094609Y00078229*
X00094639Y00077999*
X00094659Y00077939*
X00094329Y00077599*
X00093349*
Y00077609*
X00093329Y00077859*
X00093449Y00077869*
X00093669Y00077959*
X00093849Y00078109*
X00093989Y00078289*
X00094079Y00078509*
X00094109Y00078739*
X00094079Y00078969*
X00093989Y00079189*
X00093849Y00079369*
X00093669Y00079519*
X00093449Y00079609*
X00093219Y00079639*
X00092989Y00079609*
X00092769Y00079519*
X00092579Y00079369*
X00092439Y00079189*
X00092419Y00079129*
X00088299*
X00087259Y00080169*
Y00081289*
X00087869*
Y00083299*
X00087479*
X00087389Y00083529*
X00087789Y00083939*
X00093469*
X00093619Y00083969*
X00093749Y00084049*
X00095519Y00085829*
X00095609Y00085959*
Y00085979*
X00095639Y00086109*
Y00088099*
X00095699Y00088119*
X00095879Y00088269*
X00096029Y00088449*
X00096119Y00088669*
X00096149Y00088899*
X00096119Y00089129*
X00096029Y00089349*
X00095879Y00089529*
X00095699Y00089679*
X00095479Y00089769*
X00095249Y00089799*
X00095019Y00089769*
X00094799Y00089679*
X00094619Y00089529*
X00094469Y00089349*
X00094379Y00089129*
X00094349Y00088899*
X00094379Y00088669*
X00094469Y00088449*
X00094619Y00088269*
X00094799Y00088119*
X00094859Y00088099*
Y00086269*
X00093309Y00084719*
X00087629*
X00087479Y00084689*
X00087359Y00084599*
X00086589Y00083839*
X00086509Y00083709*
X00086479Y00083569*
Y00083299*
X00085859*
Y00081289*
X00086479*
Y00080009*
X00086509Y00079859*
X00086589Y00079739*
X00087859Y00078469*
X00087989Y00078379*
X00088139Y00078349*
X00092419*
X00092439Y00078289*
X00092579Y00078109*
X00092769Y00077959*
X00092989Y00077869*
X00093109Y00077859*
X00093089Y00077609*
Y00077599*
X00081189*
X00077099Y00081689*
Y00086449*
X00079009Y00088369*
X00079099Y00088499*
X00079129Y00088649*
Y00104649*
X00079099Y00104799*
X00079009Y00104919*
X00078369Y00105569*
Y00107149*
X00078429Y00107169*
X00078609Y00107319*
X00078749Y00107499*
X00078839Y00107719*
X00078869Y00107949*
X00078839Y00108179*
X00078749Y00108399*
X00078609Y00108579*
X00078429Y00108729*
X00078369Y00108749*
Y00116839*
X00078339Y00116959*
Y00116989*
X00078249Y00117109*
X00076469Y00118889*
X00076349Y00118979*
X00076199Y00119009*
X00070649*
X00070629Y00119069*
X00070479Y00119249*
X00070299Y00119389*
X00070079Y00119479*
X00069849Y00119509*
G37*
G36*
X00087119Y00099699D02*
X00086889Y00099669D01*
X00086669Y00099579*
X00086489Y00099439*
X00086349Y00099249*
X00086259Y00099039*
X00086229Y00098809*
X00086259Y00098569*
X00086349Y00098359*
X00086489Y00098169*
X00086669Y00098029*
X00086729Y00097999*
Y00089819*
X00085439Y00088529*
X00084059*
Y00089139*
X00082049*
Y00087129*
X00084059*
Y00087749*
X00085599*
X00085749Y00087779*
X00085869Y00087859*
X00087399Y00089389*
X00087479Y00089509*
X00087509Y00089659*
Y00097999*
X00087569Y00098029*
X00087759Y00098169*
X00087899Y00098359*
X00087989Y00098569*
X00088019Y00098809*
X00087989Y00099039*
X00087899Y00099249*
X00087759Y00099439*
X00087569Y00099579*
X00087349Y00099669*
X00087119Y00099699*
G37*
G36*
X00129289Y00093469D02*
X00129019Y00093429D01*
X00128779Y00093329*
X00128569Y00093169*
X00128409Y00092959*
X00128309Y00092719*
X00128269Y00092459*
X00128309Y00092189*
X00128409Y00091949*
X00128569Y00091739*
X00128779Y00091579*
X00129019Y00091479*
X00129289Y00091439*
X00129549Y00091479*
X00129789Y00091579*
X00129999Y00091739*
X00130159Y00091949*
X00130259Y00092189*
X00130299Y00092459*
X00130259Y00092719*
X00130159Y00092959*
X00129999Y00093169*
X00129789Y00093329*
X00129549Y00093429*
X00129289Y00093469*
G37*
G36*
X00083059Y00094229D02*
X00082799Y00094199D01*
X00082549Y00094089*
X00082339Y00093929*
X00082179Y00093719*
X00082079Y00093479*
X00082049Y00093219*
X00082079Y00092959*
X00082179Y00092709*
X00082339Y00092499*
X00082549Y00092339*
X00082799Y00092239*
X00083059Y00092209*
X00083319Y00092239*
X00083559Y00092339*
X00083769Y00092499*
X00083929Y00092709*
X00084039Y00092959*
X00084069Y00093219*
X00084039Y00093479*
X00083929Y00093719*
X00083769Y00093929*
X00083559Y00094089*
X00083319Y00094199*
X00083059Y00094229*
G37*
G36*
X00080639Y00091669D02*
Y00090809D01*
X00081509*
X00081499Y00090939*
X00081389Y00091179*
X00081229Y00091389*
X00081019Y00091549*
X00080779Y00091659*
X00080639Y00091669*
G37*
G36*
X00081509Y00090549D02*
X00080639D01*
Y00089679*
X00080779Y00089699*
X00081019Y00089799*
X00081229Y00089959*
X00081389Y00090169*
X00081499Y00090419*
X00081509Y00090549*
G37*
G36*
X00080389Y00091669D02*
X00080259Y00091659D01*
X00080009Y00091549*
X00079799Y00091389*
X00079639Y00091179*
X00079539Y00090939*
X00079519Y00090809*
X00080389*
Y00091669*
G37*
G36*
X00103619Y00085719D02*
X00102869D01*
X00102889Y00085619*
X00102969Y00085399*
X00103119Y00085219*
X00103299Y00085079*
X00103519Y00084989*
X00103619Y00084969*
Y00085719*
G37*
G36*
X00104629D02*
X00103879D01*
Y00084969*
X00103979Y00084989*
X00104199Y00085079*
X00104389Y00085219*
X00104529Y00085399*
X00104619Y00085619*
X00104629Y00085719*
G37*
G36*
X00129289Y00085849D02*
X00129019Y00085809D01*
X00128779Y00085709*
X00128569Y00085549*
X00128409Y00085339*
X00128309Y00085099*
X00128269Y00084839*
X00128309Y00084569*
X00128409Y00084329*
X00128569Y00084119*
X00128779Y00083959*
X00129019Y00083859*
X00129289Y00083819*
X00129549Y00083859*
X00129789Y00083959*
X00129999Y00084119*
X00130159Y00084329*
X00130259Y00084569*
X00130299Y00084839*
X00130259Y00085099*
X00130159Y00085339*
X00129999Y00085549*
X00129789Y00085709*
X00129549Y00085809*
X00129289Y00085849*
G37*
G36*
X00089279Y00083289D02*
X00089149Y00083269D01*
X00088899Y00083169*
X00088689Y00083009*
X00088529Y00082799*
X00088429Y00082559*
X00088409Y00082419*
X00089279*
Y00083289*
G37*
G36*
X00089539D02*
Y00082419D01*
X00090399*
X00090389Y00082559*
X00090279Y00082799*
X00090119Y00083009*
X00089909Y00083169*
X00089669Y00083269*
X00089539Y00083289*
G37*
G36*
X00129289Y00088389D02*
X00129019Y00088349D01*
X00128779Y00088249*
X00128569Y00088089*
X00128409Y00087879*
X00128309Y00087639*
X00128269Y00087379*
X00128309Y00087109*
X00128409Y00086869*
X00128569Y00086659*
X00128779Y00086499*
X00129019Y00086399*
X00129289Y00086359*
X00129549Y00086399*
X00129789Y00086499*
X00129999Y00086659*
X00130159Y00086869*
X00130259Y00087109*
X00130299Y00087379*
X00130259Y00087639*
X00130159Y00087879*
X00129999Y00088089*
X00129789Y00088249*
X00129549Y00088349*
X00129289Y00088389*
G37*
G36*
X00080519Y00089149D02*
X00080259Y00089119D01*
X00080009Y00089009*
X00079799Y00088849*
X00079639Y00088639*
X00079539Y00088399*
X00079509Y00088139*
X00079539Y00087879*
X00079639Y00087629*
X00079799Y00087419*
X00080009Y00087259*
X00080259Y00087159*
X00080519Y00087129*
X00080779Y00087159*
X00081019Y00087259*
X00081229Y00087419*
X00081389Y00087629*
X00081499Y00087879*
X00081529Y00088139*
X00081499Y00088399*
X00081389Y00088639*
X00081229Y00088849*
X00081019Y00089009*
X00080779Y00089119*
X00080519Y00089149*
G37*
G36*
X00091439Y00086999D02*
X00091209Y00086969D01*
X00090989Y00086879*
X00090809Y00086739*
X00090659Y00086549*
X00090569Y00086339*
X00090559Y00086239*
X00079289*
X00079259Y00086299*
X00079119Y00086489*
X00078929Y00086629*
X00078719Y00086719*
X00078489Y00086749*
X00078249Y00086719*
X00078039Y00086629*
X00077849Y00086489*
X00077709Y00086299*
X00077619Y00086079*
X00077589Y00085849*
X00077619Y00085619*
X00077709Y00085399*
X00077849Y00085219*
X00078039Y00085079*
X00078249Y00084989*
X00078489Y00084959*
X00078719Y00084989*
X00078929Y00085079*
X00079119Y00085219*
X00079259Y00085399*
X00079289Y00085459*
X00090819*
X00090989Y00085329*
X00091209Y00085239*
X00091439Y00085209*
X00091669Y00085239*
X00091889Y00085329*
X00092069Y00085469*
X00092219Y00085659*
X00092309Y00085869*
X00092339Y00086109*
X00092309Y00086339*
X00092219Y00086549*
X00092069Y00086739*
X00091889Y00086879*
X00091669Y00086969*
X00091439Y00086999*
G37*
G36*
X00103619Y00086729D02*
X00103519Y00086719D01*
X00103299Y00086629*
X00103119Y00086489*
X00102969Y00086299*
X00102889Y00086079*
X00102869Y00085979*
X00103619*
Y00086729*
G37*
G36*
X00103879D02*
Y00085979D01*
X00104629*
X00104619Y00086079*
X00104529Y00086299*
X00104389Y00086489*
X00104199Y00086629*
X00103979Y00086719*
X00103879Y00086729*
G37*
G36*
X00136129Y00080249D02*
X00134119D01*
Y00078239*
X00136129*
Y00080249*
G37*
G36*
X00087359Y00059419D02*
X00086489D01*
Y00058549*
X00087359*
Y00059419*
G37*
G36*
X00132839Y00061349D02*
X00132609Y00061319D01*
X00132389Y00061229*
X00132209Y00061089*
X00132069Y00060899*
X00131979Y00060679*
X00131949Y00060449*
X00131979Y00060219*
X00132069Y00059999*
X00132209Y00059819*
X00132389Y00059679*
X00132609Y00059589*
X00132839Y00059559*
X00133069Y00059589*
X00133289Y00059679*
X00133479Y00059819*
X00133619Y00059999*
X00133709Y00060219*
X00133739Y00060449*
X00133709Y00060679*
X00133619Y00060899*
X00133479Y00061089*
X00133289Y00061229*
X00133069Y00061319*
X00132839Y00061349*
G37*
G36*
X00086229Y00059419D02*
X00085359D01*
Y00058549*
X00086229*
Y00059419*
G37*
G36*
X00083689D02*
X00083559Y00059399D01*
X00083309Y00059299*
X00083099Y00059139*
X00082939Y00058929*
X00082839Y00058679*
X00082819Y00058549*
X00083689*
Y00059419*
G37*
G36*
X00083949D02*
Y00058549D01*
X00084819*
X00084799Y00058679*
X00084699Y00058929*
X00084539Y00059139*
X00084329Y00059299*
X00084079Y00059399*
X00083949Y00059419*
G37*
G36*
X00102489Y00064389D02*
X00101739D01*
X00101749Y00064279*
X00101839Y00064069*
X00101979Y00063879*
X00102169Y00063739*
X00102379Y00063649*
X00102489Y00063639*
Y00064389*
G37*
G36*
X00103499D02*
X00102739D01*
Y00063639*
X00102849Y00063649*
X00103059Y00063739*
X00103249Y00063879*
X00103389Y00064069*
X00103479Y00064279*
X00103499Y00064389*
G37*
G36*
X00091439Y00064459D02*
X00091189Y00064429D01*
X00090959Y00064329*
X00090759Y00064179*
X00090609Y00063979*
X00090509Y00063749*
X00090479Y00063499*
X00090509Y00063249*
X00090609Y00063019*
X00090759Y00062819*
X00090959Y00062669*
X00091189Y00062569*
X00091439Y00062539*
X00091689Y00062569*
X00091919Y00062669*
X00092119Y00062819*
X00092269Y00063019*
X00092369Y00063249*
X00092399Y00063499*
X00092369Y00063749*
X00092269Y00063979*
X00092119Y00064179*
X00091919Y00064329*
X00091689Y00064429*
X00091439Y00064459*
G37*
G36*
X00112029Y00063739D02*
X00111769Y00063709D01*
X00111519Y00063609*
X00111309Y00063449*
X00111149Y00063239*
X00111049Y00062989*
X00111019Y00062729*
X00111049Y00062469*
X00111149Y00062229*
X00111309Y00062019*
X00111519Y00061859*
X00111769Y00061749*
X00112029Y00061719*
X00112289Y00061749*
X00112529Y00061859*
X00112739Y00062019*
X00112909Y00062229*
X00113009Y00062469*
X00113039Y00062729*
X00113009Y00062989*
X00112909Y00063239*
X00112739Y00063449*
X00112529Y00063609*
X00112289Y00063709*
X00112029Y00063739*
G37*
G36*
X00078739Y00064459D02*
X00078489Y00064429D01*
X00078259Y00064329*
X00078059Y00064179*
X00077909Y00063979*
X00077809Y00063749*
X00077779Y00063499*
X00077809Y00063249*
X00077909Y00063019*
X00078059Y00062819*
X00078259Y00062669*
X00078489Y00062569*
X00078739Y00062539*
X00078989Y00062569*
X00079219Y00062669*
X00079419Y00062819*
X00079569Y00063019*
X00079669Y00063249*
X00079699Y00063499*
X00079669Y00063749*
X00079569Y00063979*
X00079419Y00064179*
X00079219Y00064329*
X00078989Y00064429*
X00078739Y00064459*
G37*
G36*
X00081279Y00059429D02*
X00081019Y00059399D01*
X00080769Y00059299*
X00080559Y00059139*
X00080399Y00058929*
X00080299Y00058679*
X00080269Y00058419*
X00080299Y00058159*
X00080399Y00057909*
X00080559Y00057699*
X00080769Y00057539*
X00081019Y00057439*
X00081279Y00057409*
X00081539Y00057439*
X00081789Y00057539*
X00081999Y00057699*
X00082159Y00057909*
X00082259Y00058159*
X00082289Y00058419*
X00082259Y00058679*
X00082159Y00058929*
X00081999Y00059139*
X00081789Y00059299*
X00081539Y00059399*
X00081279Y00059429*
G37*
G36*
X00086229Y00058289D02*
X00085359D01*
Y00057419*
X00086229*
Y00058289*
G37*
G36*
X00078739Y00059429D02*
X00078479Y00059399D01*
X00078229Y00059299*
X00078019Y00059139*
X00077859Y00058929*
X00077759Y00058679*
X00077729Y00058419*
X00077759Y00058159*
X00077859Y00057909*
X00078019Y00057699*
X00078229Y00057539*
X00078479Y00057439*
X00078739Y00057409*
X00078999Y00057439*
X00079249Y00057539*
X00079459Y00057699*
X00079619Y00057909*
X00079719Y00058159*
X00079749Y00058419*
X00079719Y00058679*
X00079619Y00058929*
X00079459Y00059139*
X00079249Y00059299*
X00078999Y00059399*
X00078739Y00059429*
G37*
G36*
X00141349Y00057779D02*
X00138689D01*
X00138709Y00057469*
X00138809Y00057049*
X00138979Y00056639*
X00139209Y00056259*
X00139499Y00055929*
X00139829Y00055639*
X00140209Y00055409*
X00140609Y00055249*
X00141039Y00055139*
X00141349Y00055119*
Y00057779*
G37*
G36*
X00144269D02*
X00141599D01*
Y00055119*
X00141919Y00055139*
X00142339Y00055249*
X00142749Y00055409*
X00143129Y00055639*
X00143459Y00055929*
X00143749Y00056259*
X00143979Y00056639*
X00144139Y00057049*
X00144249Y00057469*
X00144269Y00057779*
G37*
G36*
X00141349Y00060699D02*
X00141039Y00060679D01*
X00140609Y00060579*
X00140209Y00060409*
X00139829Y00060179*
X00139499Y00059889*
X00139209Y00059559*
X00138979Y00059179*
X00138809Y00058779*
X00138709Y00058349*
X00138689Y00058039*
X00141349*
Y00060699*
G37*
G36*
X00141599D02*
Y00058039D01*
X00144269*
X00144249Y00058349*
X00144139Y00058779*
X00143979Y00059179*
X00143749Y00059559*
X00143459Y00059889*
X00143129Y00060179*
X00142749Y00060409*
X00142339Y00060579*
X00141919Y00060679*
X00141599Y00060699*
G37*
G36*
X00084819Y00058289D02*
X00083949D01*
Y00057419*
X00084079Y00057439*
X00084329Y00057539*
X00084539Y00057699*
X00084699Y00057909*
X00084799Y00058159*
X00084819Y00058289*
G37*
G36*
X00087359D02*
X00086489D01*
Y00057419*
X00087359*
Y00058289*
G37*
G36*
X00083689D02*
X00082819D01*
X00082839Y00058159*
X00082939Y00057909*
X00083099Y00057699*
X00083309Y00057539*
X00083559Y00057439*
X00083689Y00057419*
Y00058289*
G37*
G36*
X00108329Y00075569D02*
X00107579D01*
X00107589Y00075459*
X00107679Y00075239*
X00107819Y00075059*
X00108009Y00074919*
X00108229Y00074829*
X00108329Y00074809*
Y00075569*
G37*
G36*
X00109339D02*
X00108579D01*
Y00074809*
X00108689Y00074829*
X00108909Y00074919*
X00109089Y00075059*
X00109229Y00075239*
X00109319Y00075459*
X00109339Y00075569*
G37*
G36*
X00130289Y00075679D02*
X00128279D01*
Y00073669*
X00130289*
Y00075679*
G37*
G36*
X00129159Y00070589D02*
X00129019Y00070569D01*
X00128779Y00070469*
X00128569Y00070309*
X00128409Y00070099*
X00128309Y00069859*
X00128289Y00069719*
X00129159*
Y00070589*
G37*
G36*
X00129409D02*
Y00069719D01*
X00130279*
X00130259Y00069859*
X00130159Y00070099*
X00129999Y00070309*
X00129789Y00070469*
X00129549Y00070569*
X00129409Y00070589*
G37*
G36*
X00129289Y00078229D02*
X00129019Y00078189D01*
X00128779Y00078089*
X00128569Y00077929*
X00128409Y00077719*
X00128309Y00077479*
X00128269Y00077219*
X00128309Y00076949*
X00128409Y00076709*
X00128569Y00076499*
X00128779Y00076339*
X00129019Y00076239*
X00129289Y00076199*
X00129549Y00076239*
X00129789Y00076339*
X00129999Y00076499*
X00130159Y00076709*
X00130259Y00076949*
X00130299Y00077219*
X00130259Y00077479*
X00130159Y00077719*
X00129999Y00077929*
X00129789Y00078089*
X00129549Y00078189*
X00129289Y00078229*
G37*
G36*
X00140209Y00080259D02*
X00139949Y00080229D01*
X00139699Y00080119*
X00139489Y00079959*
X00139329Y00079749*
X00139229Y00079509*
X00139199Y00079249*
X00139229Y00078989*
X00139329Y00078739*
X00139489Y00078529*
X00139699Y00078369*
X00139949Y00078269*
X00140209Y00078239*
X00140469Y00078269*
X00140709Y00078369*
X00140919Y00078529*
X00141079Y00078739*
X00141189Y00078989*
X00141219Y00079249*
X00141189Y00079509*
X00141079Y00079749*
X00140919Y00079959*
X00140709Y00080119*
X00140469Y00080229*
X00140209Y00080259*
G37*
G36*
X00108579Y00076569D02*
Y00075819D01*
X00109339*
X00109319Y00075919*
X00109229Y00076139*
X00109089Y00076329*
X00108909Y00076469*
X00108689Y00076559*
X00108579Y00076569*
G37*
G36*
X00117089Y00076839D02*
X00116859Y00076809D01*
X00116649Y00076719*
X00116459Y00076579*
X00116319Y00076389*
X00116229Y00076179*
X00116199Y00075949*
X00116229Y00075709*
X00116319Y00075499*
X00116459Y00075309*
X00116649Y00075169*
X00116859Y00075079*
X00117089Y00075049*
X00117329Y00075079*
X00117539Y00075169*
X00117729Y00075309*
X00117869Y00075499*
X00117959Y00075709*
X00117989Y00075949*
X00117959Y00076179*
X00117869Y00076389*
X00117729Y00076579*
X00117539Y00076719*
X00117329Y00076809*
X00117089Y00076839*
G37*
G36*
X00108329Y00076569D02*
X00108229Y00076559D01*
X00108009Y00076469*
X00107819Y00076329*
X00107679Y00076139*
X00107589Y00075919*
X00107579Y00075819*
X00108329*
Y00076569*
G37*
G36*
X00129159Y00066929D02*
X00128289D01*
X00128309Y00066789*
X00128409Y00066549*
X00128569Y00066339*
X00128779Y00066179*
X00129019Y00066079*
X00129159Y00066059*
Y00066929*
G37*
G36*
X00130279D02*
X00129409D01*
Y00066059*
X00129549Y00066079*
X00129789Y00066179*
X00129999Y00066339*
X00130159Y00066549*
X00130259Y00066789*
X00130279Y00066929*
G37*
G36*
X00126749Y00068069D02*
X00126479Y00068029D01*
X00126239Y00067929*
X00126029Y00067769*
X00125869Y00067559*
X00125769Y00067319*
X00125729Y00067059*
X00125769Y00066789*
X00125869Y00066549*
X00126029Y00066339*
X00126239Y00066179*
X00126479Y00066079*
X00126749Y00066039*
X00127009Y00066079*
X00127249Y00066179*
X00127459Y00066339*
X00127619Y00066549*
X00127719Y00066789*
X00127759Y00067059*
X00127719Y00067319*
X00127619Y00067559*
X00127459Y00067769*
X00127249Y00067929*
X00127009Y00068029*
X00126749Y00068069*
G37*
G36*
X00102489Y00065399D02*
X00102379Y00065379D01*
X00102169Y00065289*
X00101979Y00065149*
X00101839Y00064959*
X00101749Y00064749*
X00101739Y00064639*
X00102489*
Y00065399*
G37*
G36*
X00102739D02*
Y00064639D01*
X00103499*
X00103479Y00064749*
X00103389Y00064959*
X00103249Y00065149*
X00103059Y00065289*
X00102849Y00065379*
X00102739Y00065399*
G37*
G36*
X00129159Y00069469D02*
X00128289D01*
X00128309Y00069329*
X00128409Y00069089*
X00128569Y00068879*
X00128779Y00068719*
X00129019Y00068619*
X00129159Y00068599*
Y00069469*
G37*
G36*
X00130279D02*
X00129409D01*
Y00068599*
X00129549Y00068619*
X00129789Y00068719*
X00129999Y00068879*
X00130159Y00069089*
X00130259Y00069329*
X00130279Y00069469*
G37*
G36*
X00127749Y00070599D02*
X00125739D01*
Y00068589*
X00127749*
Y00070599*
G37*
G36*
X00129159Y00068049D02*
X00129019Y00068029D01*
X00128779Y00067929*
X00128569Y00067769*
X00128409Y00067559*
X00128309Y00067319*
X00128289Y00067179*
X00129159*
Y00068049*
G37*
G36*
X00129409D02*
Y00067179D01*
X00130279*
X00130259Y00067319*
X00130159Y00067559*
X00129999Y00067769*
X00129789Y00067929*
X00129549Y00068029*
X00129409Y00068049*
G37*
G36*
X00103249Y00121789D02*
X00102379D01*
X00102399Y00121659*
X00102499Y00121409*
X00102659Y00121199*
X00102869Y00121039*
X00103119Y00120939*
X00103249Y00120919*
Y00121789*
G37*
G36*
X00104369D02*
X00103499D01*
Y00120919*
X00103639Y00120939*
X00103879Y00121039*
X00104089Y00121199*
X00104249Y00121409*
X00104359Y00121659*
X00104369Y00121789*
G37*
G36*
X00101829D02*
X00100959D01*
Y00120919*
X00101099Y00120939*
X00101339Y00121039*
X00101549Y00121199*
X00101709Y00121409*
X00101819Y00121659*
X00101829Y00121789*
G37*
G36*
X00083809Y00122669D02*
X00081799D01*
Y00120659*
X00083809*
Y00122669*
G37*
G36*
X00100709Y00121789D02*
X00099839D01*
X00099859Y00121659*
X00099959Y00121409*
X00100119Y00121199*
X00100329Y00121039*
X00100579Y00120939*
X00100709Y00120919*
Y00121789*
G37*
G36*
X00109449D02*
X00108579D01*
Y00120919*
X00108719Y00120939*
X00108959Y00121039*
X00109169Y00121199*
X00109329Y00121409*
X00109439Y00121659*
X00109449Y00121789*
G37*
G36*
X00110869D02*
X00109999D01*
X00110019Y00121659*
X00110119Y00121409*
X00110279Y00121199*
X00110489Y00121039*
X00110739Y00120939*
X00110869Y00120919*
Y00121789*
G37*
G36*
X00108329D02*
X00107459D01*
X00107479Y00121659*
X00107579Y00121409*
X00107739Y00121199*
X00107949Y00121039*
X00108199Y00120939*
X00108329Y00120919*
Y00121789*
G37*
G36*
X00105789D02*
X00104919D01*
X00104939Y00121659*
X00105039Y00121409*
X00105199Y00121199*
X00105409Y00121039*
X00105659Y00120939*
X00105789Y00120919*
Y00121789*
G37*
G36*
X00106909D02*
X00106039D01*
Y00120919*
X00106179Y00120939*
X00106419Y00121039*
X00106629Y00121199*
X00106789Y00121409*
X00106899Y00121659*
X00106909Y00121789*
G37*
G36*
X00129029Y00122479D02*
X00128759Y00122439D01*
X00128499Y00122329*
X00128279Y00122159*
X00128109Y00121939*
X00128009Y00121689*
X00127969Y00121409*
X00128009Y00121139*
X00128059Y00120989*
X00126839Y00119769*
X00116999*
X00116949Y00119889*
X00116789Y00120099*
X00116579Y00120259*
X00116339Y00120359*
X00116079Y00120389*
X00115819Y00120359*
X00115569Y00120259*
X00115359Y00120099*
X00115199Y00119889*
X00115099Y00119639*
X00115069Y00119379*
X00115099Y00119119*
X00115199Y00118869*
X00115359Y00118659*
X00115569Y00118499*
X00115819Y00118399*
X00116079Y00118369*
X00116339Y00118399*
X00116579Y00118499*
X00116789Y00118659*
X00116949Y00118869*
X00116999Y00118989*
X00126999*
X00127149Y00119019*
X00127269Y00119109*
X00128609Y00120439*
X00128759Y00120389*
X00129029Y00120349*
X00129309Y00120389*
X00129559Y00120489*
X00129779Y00120659*
X00129949Y00120879*
X00130059Y00121139*
X00130099Y00121409*
X00130059Y00121689*
X00129949Y00121939*
X00129779Y00122159*
X00129559Y00122329*
X00129309Y00122439*
X00129029Y00122479*
G37*
G36*
X00125009Y00122469D02*
X00122899D01*
Y00120359*
X00125009*
Y00122469*
G37*
G36*
X00077979Y00121799D02*
X00077749Y00121769D01*
X00077529Y00121679*
X00077339Y00121539*
X00077199Y00121349*
X00077109Y00121139*
X00077079Y00120899*
X00077109Y00120669*
X00077199Y00120459*
X00077339Y00120269*
X00077529Y00120129*
X00077749Y00120039*
X00077979Y00120009*
X00078209Y00120039*
X00078429Y00120129*
X00078609Y00120269*
X00078749Y00120459*
X00078839Y00120669*
X00078869Y00120899*
X00078839Y00121139*
X00078749Y00121349*
X00078609Y00121539*
X00078429Y00121679*
X00078209Y00121769*
X00077979Y00121799*
G37*
G36*
X00113539Y00120389D02*
X00113279Y00120359D01*
X00113029Y00120259*
X00112819Y00120099*
X00112659Y00119889*
X00112559Y00119639*
X00112529Y00119379*
X00112559Y00119119*
X00112659Y00118869*
X00112819Y00118659*
X00113029Y00118499*
X00113279Y00118399*
X00113539Y00118369*
X00113799Y00118399*
X00114039Y00118499*
X00114249Y00118659*
X00114409Y00118869*
X00114519Y00119119*
X00114549Y00119379*
X00114519Y00119639*
X00114409Y00119889*
X00114249Y00120099*
X00114039Y00120259*
X00113799Y00120359*
X00113539Y00120389*
G37*
G36*
X00101839Y00120379D02*
X00099829D01*
Y00118379*
X00101839*
Y00120379*
G37*
G36*
X00087879Y00122679D02*
X00087619Y00122639D01*
X00087379Y00122539*
X00087169Y00122379*
X00087009Y00122169*
X00086909Y00121929*
X00086869Y00121669*
X00086909Y00121399*
X00087009Y00121159*
X00087169Y00120949*
X00087379Y00120789*
X00087619Y00120689*
X00087879Y00120649*
X00088149Y00120689*
X00088389Y00120789*
X00088599Y00120949*
X00088759Y00121159*
X00088859Y00121399*
X00088899Y00121669*
X00088859Y00121929*
X00088759Y00122169*
X00088599Y00122379*
X00088389Y00122539*
X00088149Y00122639*
X00087879Y00122679*
G37*
G36*
X00090419D02*
X00090159Y00122639D01*
X00089919Y00122539*
X00089709Y00122379*
X00089549Y00122169*
X00089449Y00121929*
X00089409Y00121669*
X00089449Y00121399*
X00089549Y00121159*
X00089709Y00120949*
X00089919Y00120789*
X00090159Y00120689*
X00090419Y00120649*
X00090689Y00120689*
X00090929Y00120789*
X00091139Y00120949*
X00091299Y00121159*
X00091399Y00121399*
X00091439Y00121669*
X00091399Y00121929*
X00091299Y00122169*
X00091139Y00122379*
X00090929Y00122539*
X00090689Y00122639*
X00090419Y00122679*
G37*
G36*
X00085339D02*
X00085079Y00122639D01*
X00084839Y00122539*
X00084629Y00122379*
X00084469Y00122169*
X00084369Y00121929*
X00084329Y00121669*
X00084369Y00121399*
X00084469Y00121159*
X00084629Y00120949*
X00084839Y00120789*
X00085079Y00120689*
X00085339Y00120649*
X00085609Y00120689*
X00085849Y00120789*
X00086059Y00120949*
X00086219Y00121159*
X00086319Y00121399*
X00086359Y00121669*
X00086319Y00121929*
X00086219Y00122169*
X00086059Y00122379*
X00085849Y00122539*
X00085609Y00122639*
X00085339Y00122679*
G37*
G36*
X00126359Y00121289D02*
X00125449D01*
X00125469Y00121139*
X00125569Y00120879*
X00125739Y00120659*
X00125959Y00120489*
X00126219Y00120389*
X00126359Y00120369*
Y00121289*
G37*
G36*
X00127539D02*
X00126619D01*
Y00120369*
X00126769Y00120389*
X00127019Y00120489*
X00127239Y00120659*
X00127409Y00120879*
X00127519Y00121139*
X00127539Y00121289*
G37*
G36*
X00111989Y00121789D02*
X00111119D01*
Y00120919*
X00111259Y00120939*
X00111499Y00121039*
X00111709Y00121199*
X00111869Y00121409*
X00111979Y00121659*
X00111989Y00121789*
G37*
G36*
X00108579Y00122919D02*
Y00122049D01*
X00109449*
X00109439Y00122179*
X00109329Y00122429*
X00109169Y00122639*
X00108959Y00122799*
X00108719Y00122899*
X00108579Y00122919*
G37*
G36*
X00110869D02*
X00110739Y00122899D01*
X00110489Y00122799*
X00110279Y00122639*
X00110119Y00122429*
X00110019Y00122179*
X00109999Y00122049*
X00110869*
Y00122919*
G37*
G36*
X00108329D02*
X00108199Y00122899D01*
X00107949Y00122799*
X00107739Y00122639*
X00107579Y00122429*
X00107479Y00122179*
X00107459Y00122049*
X00108329*
Y00122919*
G37*
G36*
X00105789D02*
X00105659Y00122899D01*
X00105409Y00122799*
X00105199Y00122639*
X00105039Y00122429*
X00104939Y00122179*
X00104919Y00122049*
X00105789*
Y00122919*
G37*
G36*
X00106039D02*
Y00122049D01*
X00106909*
X00106899Y00122179*
X00106789Y00122429*
X00106629Y00122639*
X00106419Y00122799*
X00106179Y00122899*
X00106039Y00122919*
G37*
G36*
X00115949D02*
X00115819Y00122899D01*
X00115569Y00122799*
X00115359Y00122639*
X00115199Y00122429*
X00115099Y00122179*
X00115079Y00122049*
X00115949*
Y00122919*
G37*
G36*
X00116209D02*
Y00122049D01*
X00117069*
X00117059Y00122179*
X00116949Y00122429*
X00116789Y00122639*
X00116579Y00122799*
X00116339Y00122899*
X00116209Y00122919*
G37*
G36*
X00113669D02*
Y00122049D01*
X00114529*
X00114519Y00122179*
X00114409Y00122429*
X00114249Y00122639*
X00114039Y00122799*
X00113799Y00122899*
X00113669Y00122919*
G37*
G36*
X00111119D02*
Y00122049D01*
X00111989*
X00111979Y00122179*
X00111869Y00122429*
X00111709Y00122639*
X00111499Y00122799*
X00111259Y00122899*
X00111119Y00122919*
G37*
G36*
X00113409D02*
X00113279Y00122899D01*
X00113029Y00122799*
X00112819Y00122639*
X00112659Y00122429*
X00112559Y00122179*
X00112539Y00122049*
X00113409*
Y00122919*
G37*
G36*
X00117069Y00121789D02*
X00116209D01*
Y00120919*
X00116339Y00120939*
X00116579Y00121039*
X00116789Y00121199*
X00116949Y00121409*
X00117059Y00121659*
X00117069Y00121789*
G37*
G36*
X00126359Y00122459D02*
X00126219Y00122439D01*
X00125959Y00122329*
X00125739Y00122159*
X00125569Y00121939*
X00125469Y00121689*
X00125449Y00121539*
X00126359*
Y00122459*
G37*
G36*
X00115949Y00121789D02*
X00115079D01*
X00115099Y00121659*
X00115199Y00121409*
X00115359Y00121199*
X00115569Y00121039*
X00115819Y00120939*
X00115949Y00120919*
Y00121789*
G37*
G36*
X00113409D02*
X00112539D01*
X00112559Y00121659*
X00112659Y00121409*
X00112819Y00121199*
X00113029Y00121039*
X00113279Y00120939*
X00113409Y00120919*
Y00121789*
G37*
G36*
X00114529D02*
X00113669D01*
Y00120919*
X00113799Y00120939*
X00114039Y00121039*
X00114249Y00121199*
X00114409Y00121409*
X00114519Y00121659*
X00114529Y00121789*
G37*
G36*
X00103249Y00122919D02*
X00103119Y00122899D01*
X00102869Y00122799*
X00102659Y00122639*
X00102499Y00122429*
X00102399Y00122179*
X00102379Y00122049*
X00103249*
Y00122919*
G37*
G36*
X00103499D02*
Y00122049D01*
X00104369*
X00104359Y00122179*
X00104249Y00122429*
X00104089Y00122639*
X00103879Y00122799*
X00103639Y00122899*
X00103499Y00122919*
G37*
G36*
X00100959D02*
Y00122049D01*
X00101829*
X00101819Y00122179*
X00101709Y00122429*
X00101549Y00122639*
X00101339Y00122799*
X00101099Y00122899*
X00100959Y00122919*
G37*
G36*
X00126619Y00122459D02*
Y00121539D01*
X00127539*
X00127519Y00121689*
X00127409Y00121939*
X00127239Y00122159*
X00127019Y00122329*
X00126769Y00122439*
X00126619Y00122459*
G37*
G36*
X00100709Y00122919D02*
X00100579Y00122899D01*
X00100329Y00122799*
X00100119Y00122639*
X00099959Y00122429*
X00099859Y00122179*
X00099839Y00122049*
X00100709*
Y00122919*
G37*
G36*
X00080389Y00099289D02*
X00080259Y00099279D01*
X00080009Y00099169*
X00079799Y00099009*
X00079639Y00098799*
X00079539Y00098559*
X00079519Y00098429*
X00080389*
Y00099289*
G37*
G36*
X00080639D02*
Y00098429D01*
X00081509*
X00081499Y00098559*
X00081389Y00098799*
X00081229Y00099009*
X00081019Y00099169*
X00080779Y00099279*
X00080639Y00099289*
G37*
G36*
X00081509Y00098169D02*
X00080639D01*
Y00097299*
X00080779Y00097319*
X00081019Y00097419*
X00081229Y00097579*
X00081389Y00097789*
X00081499Y00098039*
X00081509Y00098169*
G37*
G36*
X00083059Y00099309D02*
X00082799Y00099279D01*
X00082549Y00099169*
X00082339Y00099009*
X00082179Y00098799*
X00082079Y00098559*
X00082049Y00098299*
X00082079Y00098039*
X00082179Y00097789*
X00082339Y00097579*
X00082549Y00097419*
X00082799Y00097319*
X00083059Y00097289*
X00083319Y00097319*
X00083559Y00097419*
X00083769Y00097579*
X00083929Y00097789*
X00084039Y00098039*
X00084069Y00098299*
X00084039Y00098559*
X00083929Y00098799*
X00083769Y00099009*
X00083559Y00099169*
X00083319Y00099279*
X00083059Y00099309*
G37*
G36*
X00080389Y00098169D02*
X00079519D01*
X00079539Y00098039*
X00079639Y00097789*
X00079799Y00097579*
X00080009Y00097419*
X00080259Y00097319*
X00080389Y00097299*
Y00098169*
G37*
G36*
X00135419Y00102359D02*
X00135159Y00102319D01*
X00134919Y00102219*
X00134709Y00102059*
X00134539Y00101849*
X00134439Y00101609*
X00134409Y00101349*
X00134439Y00101079*
X00134539Y00100839*
X00134709Y00100629*
X00134919Y00100469*
X00135159Y00100369*
X00135419Y00100329*
X00135679Y00100369*
X00135929Y00100469*
X00136139Y00100629*
X00136299Y00100839*
X00136399Y00101079*
X00136429Y00101349*
X00136399Y00101609*
X00136299Y00101849*
X00136139Y00102059*
X00135929Y00102219*
X00135679Y00102319*
X00135419Y00102359*
G37*
G36*
X00140299Y00101219D02*
X00139429D01*
X00139439Y00101079*
X00139549Y00100839*
X00139709Y00100629*
X00139919Y00100469*
X00140159Y00100369*
X00140299Y00100349*
Y00101219*
G37*
G36*
X00072639Y00101089D02*
X00072379Y00101049D01*
X00072139Y00100949*
X00071929Y00100789*
X00071769Y00100579*
X00071669Y00100339*
X00071629Y00100079*
X00071669Y00099809*
X00071769Y00099569*
X00071929Y00099359*
X00072139Y00099199*
X00072379Y00099099*
X00072639Y00099059*
X00072909Y00099099*
X00073149Y00099199*
X00073359Y00099359*
X00073519Y00099569*
X00073619Y00099809*
X00073659Y00100079*
X00073619Y00100339*
X00073519Y00100579*
X00073359Y00100789*
X00073149Y00100949*
X00072909Y00101049*
X00072639Y00101089*
G37*
G36*
X00091949Y00100459D02*
X00091719Y00100429D01*
X00091499Y00100339*
X00091309Y00100199*
X00091169Y00100019*
X00091079Y00099799*
X00091049Y00099569*
X00091079Y00099339*
X00091169Y00099119*
X00091309Y00098929*
X00091499Y00098789*
X00091719Y00098699*
X00091949Y00098669*
X00092179Y00098699*
X00092399Y00098789*
X00092579Y00098929*
X00092719Y00099119*
X00092809Y00099339*
X00092839Y00099569*
X00092809Y00099799*
X00092719Y00100019*
X00092579Y00100199*
X00092399Y00100339*
X00092179Y00100429*
X00091949Y00100459*
G37*
G36*
X00110999Y00100719D02*
X00110769Y00100689D01*
X00110549Y00100599*
X00110359Y00100459*
X00110219Y00100269*
X00110129Y00100049*
X00110099Y00099819*
X00110129Y00099589*
X00110219Y00099369*
X00110359Y00099189*
X00110549Y00099049*
X00110769Y00098959*
X00110999Y00098929*
X00111229Y00098959*
X00111449Y00099049*
X00111629Y00099189*
X00111769Y00099369*
X00111859Y00099589*
X00111889Y00099819*
X00111859Y00100049*
X00111769Y00100269*
X00111629Y00100459*
X00111449Y00100599*
X00111229Y00100689*
X00110999Y00100719*
G37*
G36*
X00073649Y00098539D02*
X00071639D01*
Y00096529*
X00073649*
Y00098539*
G37*
G36*
X00080639Y00094209D02*
Y00093349D01*
X00081509*
X00081499Y00093479*
X00081389Y00093719*
X00081229Y00093929*
X00081019Y00094089*
X00080779Y00094199*
X00080639Y00094209*
G37*
G36*
X00083059Y00096769D02*
X00082799Y00096739D01*
X00082549Y00096629*
X00082339Y00096469*
X00082179Y00096259*
X00082079Y00096019*
X00082049Y00095759*
X00082079Y00095499*
X00082179Y00095249*
X00082339Y00095039*
X00082549Y00094879*
X00082799Y00094779*
X00083059Y00094749*
X00083319Y00094779*
X00083559Y00094879*
X00083769Y00095039*
X00083929Y00095249*
X00084039Y00095499*
X00084069Y00095759*
X00084039Y00096019*
X00083929Y00096259*
X00083769Y00096469*
X00083559Y00096629*
X00083319Y00096739*
X00083059Y00096769*
G37*
G36*
X00080389Y00094209D02*
X00080259Y00094199D01*
X00080009Y00094089*
X00079799Y00093929*
X00079639Y00093719*
X00079539Y00093479*
X00079519Y00093349*
X00080389*
Y00094209*
G37*
G36*
Y00093089D02*
X00079519D01*
X00079539Y00092959*
X00079639Y00092709*
X00079799Y00092499*
X00080009Y00092339*
X00080259Y00092239*
X00080389Y00092219*
Y00093089*
G37*
G36*
X00081509D02*
X00080639D01*
Y00092219*
X00080779Y00092239*
X00081019Y00092339*
X00081229Y00092499*
X00081389Y00092709*
X00081499Y00092959*
X00081509Y00093089*
G37*
G36*
X00080389Y00096749D02*
X00080259Y00096739D01*
X00080009Y00096629*
X00079799Y00096469*
X00079639Y00096259*
X00079539Y00096019*
X00079519Y00095889*
X00080389*
Y00096749*
G37*
G36*
X00080639D02*
Y00095889D01*
X00081509*
X00081499Y00096019*
X00081389Y00096259*
X00081229Y00096469*
X00081019Y00096629*
X00080779Y00096739*
X00080639Y00096749*
G37*
G36*
X00117089Y00096649D02*
X00116859Y00096619D01*
X00116649Y00096529*
X00116459Y00096389*
X00116319Y00096209*
X00116229Y00095989*
X00116199Y00095759*
X00116229Y00095529*
X00116319Y00095309*
X00116459Y00095119*
X00116649Y00094979*
X00116859Y00094889*
X00117089Y00094859*
X00117329Y00094889*
X00117539Y00094979*
X00117729Y00095119*
X00117869Y00095309*
X00117959Y00095529*
X00117989Y00095759*
X00117959Y00095989*
X00117869Y00096209*
X00117729Y00096389*
X00117539Y00096529*
X00117329Y00096619*
X00117089Y00096649*
G37*
G36*
X00080389Y00095629D02*
X00079519D01*
X00079539Y00095499*
X00079639Y00095249*
X00079799Y00095039*
X00080009Y00094879*
X00080259Y00094779*
X00080389Y00094759*
Y00095629*
G37*
G36*
X00081509D02*
X00080639D01*
Y00094759*
X00080779Y00094779*
X00081019Y00094879*
X00081229Y00095039*
X00081389Y00095249*
X00081499Y00095499*
X00081509Y00095629*
G37*
G36*
X00140299Y00113769D02*
X00140159Y00113749D01*
X00139919Y00113649*
X00139709Y00113489*
X00139549Y00113279*
X00139439Y00113039*
X00139429Y00112899*
X00140299*
Y00113769*
G37*
G36*
X00140549D02*
Y00112899D01*
X00141419*
X00141399Y00113039*
X00141299Y00113279*
X00141139Y00113489*
X00140929Y00113649*
X00140679Y00113749*
X00140549Y00113769*
G37*
G36*
X00141419Y00112649D02*
X00140549D01*
Y00111779*
X00140679Y00111799*
X00140929Y00111899*
X00141139Y00112059*
X00141299Y00112269*
X00141399Y00112509*
X00141419Y00112649*
G37*
G36*
X00135419Y00113789D02*
X00135159Y00113749D01*
X00134919Y00113649*
X00134709Y00113489*
X00134539Y00113279*
X00134439Y00113039*
X00134409Y00112779*
X00134439Y00112509*
X00134539Y00112269*
X00134709Y00112059*
X00134919Y00111899*
X00135159Y00111799*
X00135419Y00111759*
X00135679Y00111799*
X00135929Y00111899*
X00136139Y00112059*
X00136299Y00112269*
X00136399Y00112509*
X00136429Y00112779*
X00136399Y00113039*
X00136299Y00113279*
X00136139Y00113489*
X00135929Y00113649*
X00135679Y00113749*
X00135419Y00113789*
G37*
G36*
X00140299Y00112649D02*
X00139429D01*
X00139439Y00112509*
X00139549Y00112269*
X00139709Y00112059*
X00139919Y00111899*
X00140159Y00111799*
X00140299Y00111779*
Y00112649*
G37*
G36*
X00108459Y00120389D02*
X00108199Y00120359D01*
X00107949Y00120259*
X00107739Y00120099*
X00107579Y00119889*
X00107479Y00119639*
X00107449Y00119379*
X00107479Y00119119*
X00107579Y00118869*
X00107739Y00118659*
X00107949Y00118499*
X00108199Y00118399*
X00108459Y00118369*
X00108719Y00118399*
X00108959Y00118499*
X00109169Y00118659*
X00109329Y00118869*
X00109439Y00119119*
X00109469Y00119379*
X00109439Y00119639*
X00109329Y00119889*
X00109169Y00120099*
X00108959Y00120259*
X00108719Y00120359*
X00108459Y00120389*
G37*
G36*
X00110999D02*
X00110739Y00120359D01*
X00110489Y00120259*
X00110279Y00120099*
X00110119Y00119889*
X00110019Y00119639*
X00109989Y00119379*
X00110019Y00119119*
X00110119Y00118869*
X00110279Y00118659*
X00110489Y00118499*
X00110739Y00118399*
X00110999Y00118369*
X00111259Y00118399*
X00111499Y00118499*
X00111709Y00118659*
X00111869Y00118869*
X00111979Y00119119*
X00112009Y00119379*
X00111979Y00119639*
X00111869Y00119889*
X00111709Y00120099*
X00111499Y00120259*
X00111259Y00120359*
X00110999Y00120389*
G37*
G36*
X00105919D02*
X00105659Y00120359D01*
X00105409Y00120259*
X00105199Y00120099*
X00105039Y00119889*
X00104939Y00119639*
X00104909Y00119379*
X00104939Y00119119*
X00105039Y00118869*
X00105199Y00118659*
X00105409Y00118499*
X00105659Y00118399*
X00105919Y00118369*
X00106179Y00118399*
X00106419Y00118499*
X00106629Y00118659*
X00106789Y00118869*
X00106899Y00119119*
X00106929Y00119379*
X00106899Y00119639*
X00106789Y00119889*
X00106629Y00120099*
X00106419Y00120259*
X00106179Y00120359*
X00105919Y00120389*
G37*
G36*
X00141479Y00123959D02*
X00141039Y00123929D01*
X00140609Y00123819*
X00140209Y00123659*
X00139829Y00123429*
X00139499Y00123139*
X00139209Y00122809*
X00138979Y00122429*
X00138809Y00122019*
X00138709Y00121599*
X00138679Y00121159*
X00138709Y00120719*
X00138809Y00120289*
X00138979Y00119889*
X00139209Y00119509*
X00139499Y00119179*
X00139829Y00118889*
X00140209Y00118659*
X00140609Y00118489*
X00141039Y00118389*
X00141479Y00118359*
X00141919Y00118389*
X00142339Y00118489*
X00142749Y00118659*
X00143129Y00118889*
X00143459Y00119179*
X00143749Y00119509*
X00143979Y00119889*
X00144139Y00120289*
X00144249Y00120719*
X00144279Y00121159*
X00144249Y00121599*
X00144139Y00122019*
X00143979Y00122429*
X00143749Y00122809*
X00143459Y00123139*
X00143129Y00123429*
X00142749Y00123659*
X00142339Y00123819*
X00141919Y00123929*
X00141479Y00123959*
G37*
G36*
X00103379Y00120389D02*
X00103119Y00120359D01*
X00102869Y00120259*
X00102659Y00120099*
X00102499Y00119889*
X00102399Y00119639*
X00102369Y00119379*
X00102399Y00119119*
X00102499Y00118869*
X00102659Y00118659*
X00102869Y00118499*
X00103119Y00118399*
X00103379Y00118369*
X00103639Y00118399*
X00103879Y00118499*
X00104089Y00118659*
X00104249Y00118869*
X00104359Y00119119*
X00104389Y00119379*
X00104359Y00119639*
X00104249Y00119889*
X00104089Y00120099*
X00103879Y00120259*
X00103639Y00120359*
X00103379Y00120389*
G37*
G36*
X00072639Y00103629D02*
X00072379Y00103589D01*
X00072139Y00103489*
X00071929Y00103329*
X00071769Y00103119*
X00071669Y00102879*
X00071629Y00102619*
X00071669Y00102349*
X00071769Y00102109*
X00071929Y00101899*
X00072139Y00101739*
X00072379Y00101639*
X00072639Y00101599*
X00072909Y00101639*
X00073149Y00101739*
X00073359Y00101899*
X00073519Y00102109*
X00073619Y00102349*
X00073659Y00102619*
X00073619Y00102879*
X00073519Y00103119*
X00073359Y00103329*
X00073149Y00103489*
X00072909Y00103589*
X00072639Y00103629*
G37*
G36*
X00100579Y00108849D02*
X00100349Y00108819D01*
X00100139Y00108729*
X00099949Y00108579*
X00099809Y00108399*
X00099719Y00108179*
X00099689Y00107949*
X00099719Y00107719*
X00099809Y00107499*
X00099949Y00107319*
X00100139Y00107169*
X00100349Y00107079*
X00100579Y00107049*
X00100819Y00107079*
X00101029Y00107169*
X00101219Y00107319*
X00101359Y00107499*
X00101449Y00107719*
X00101479Y00107949*
X00101449Y00108179*
X00101359Y00108399*
X00101219Y00108579*
X00101029Y00108729*
X00100819Y00108819*
X00100579Y00108849*
G37*
G36*
X00140549Y00102339D02*
Y00101469D01*
X00141419*
X00141399Y00101609*
X00141299Y00101849*
X00141139Y00102059*
X00140929Y00102219*
X00140679Y00102319*
X00140549Y00102339*
G37*
G36*
X00141419Y00101219D02*
X00140549D01*
Y00100349*
X00140679Y00100369*
X00140929Y00100469*
X00141139Y00100629*
X00141299Y00100839*
X00141399Y00101079*
X00141419Y00101219*
G37*
G36*
X00140299Y00102339D02*
X00140159Y00102319D01*
X00139919Y00102219*
X00139709Y00102059*
X00139549Y00101849*
X00139439Y00101609*
X00139429Y00101469*
X00140299*
Y00102339*
G37*
G36*
X00123859Y00109199D02*
X00123729Y00109179D01*
X00123489Y00109079*
X00123279Y00108919*
X00123109Y00108709*
X00123009Y00108469*
X00122999Y00108329*
X00123859*
Y00109199*
G37*
G36*
X00124119D02*
Y00108329D01*
X00124989*
X00124969Y00108469*
X00124869Y00108709*
X00124709Y00108919*
X00124499Y00109079*
X00124249Y00109179*
X00124119Y00109199*
G37*
G36*
X00124989Y00108079D02*
X00124119D01*
Y00107209*
X00124249Y00107229*
X00124499Y00107329*
X00124709Y00107489*
X00124869Y00107699*
X00124969Y00107939*
X00124989Y00108079*
G37*
G36*
X00128989Y00109219D02*
X00128729Y00109179D01*
X00128489Y00109079*
X00128279Y00108919*
X00128119Y00108709*
X00128009Y00108469*
X00127979Y00108199*
X00128009Y00107939*
X00128119Y00107699*
X00128279Y00107489*
X00128489Y00107329*
X00128729Y00107229*
X00128989Y00107189*
X00129249Y00107229*
X00129499Y00107329*
X00129709Y00107489*
X00129869Y00107699*
X00129969Y00107939*
X00129999Y00108199*
X00129969Y00108469*
X00129869Y00108709*
X00129709Y00108919*
X00129499Y00109079*
X00129249Y00109179*
X00128989Y00109219*
G37*
G36*
X00123859Y00108079D02*
X00122999D01*
X00123009Y00107939*
X00123109Y00107699*
X00123279Y00107489*
X00123489Y00107329*
X00123729Y00107229*
X00123859Y00107209*
Y00108079*
G37*
%LNmain_board_pcb-3*%
%LPD*%
G36*
X00075169Y00087179D02*
X00075309Y00086999D01*
X00075499Y00086849*
X00075709Y00086759*
X00075949Y00086729*
X00076129Y00086759*
X00076319Y00086589*
Y00081529*
X00076349Y00081389*
X00076429Y00081259*
X00080619Y00077079*
X00080519Y00076839*
X00071029*
X00068969Y00078899*
Y00085689*
X00070519Y00087239*
X00075139*
X00075169Y00087179*
G37*
G54D10*
X00032509Y00089149D02*
X00032769D01*
X00030989Y00087629D02*
X00032509Y00089149D01*
X00030989Y00066039D02*
Y00087629D01*
X00050039Y00057149D02*
Y00058669D01*
X00048769Y00055879D02*
X00050039Y00057149D01*
X00041149Y00055879D02*
X00048769D01*
X00030989Y00066039D02*
X00041149Y00055879D01*
X00032769Y00089149D02*
X00035049D01*
X00030989Y00090929D02*
X00032769Y00089149D01*
X00030989Y00090929D02*
Y00113279D01*
X00032629Y00114919*
X00035049*
X00052679Y00113279D02*
X00054709Y00111249D01*
X00052319Y00113279D02*
X00052679D01*
X00045469Y00099059D02*
X00046869Y00097649D01*
X00050039*
X00045469Y00099059D02*
Y00104899D01*
X00042929Y00107439D02*
X00045469Y00104899D01*
X00041659Y00107439D02*
X00042929D01*
X00065019Y00091689D02*
Y00097539D01*
X00060079Y00086749D02*
X00065019Y00091689D01*
X00050039Y00086749D02*
X00060079D01*
X00062229Y00105409D02*
X00065019Y00102619D01*
X00060709Y00105409D02*
X00062229D01*
X00052319Y00117859D02*
X00054709D01*
X00041659Y00096519D02*
Y00099819D01*
X00055489Y00058669D02*
X00055739Y00058419D01*
X00063499*
X00069339Y00065019D02*
X00070609Y00063749D01*
X00069339Y00065019D02*
Y00069849D01*
X00066799D02*
X00069339D01*
X00058419D02*
Y00072639D01*
Y00067059D02*
Y00069849D01*
X00064259*
X00058409Y00067059D02*
X00058419D01*
X00045979Y00072389D02*
X00051309Y00067059D01*
X00044699Y00072389D02*
X00045979D01*
X00044699Y00077839D02*
X00046089D01*
X00057659Y00081279D02*
X00060449D01*
X00061969Y00076709D02*
Y00079759D01*
X00060449Y00081279D02*
X00061969Y00079759D01*
X00057659Y00081279D02*
Y00083059D01*
X00046089Y00077839D02*
X00052069Y00083819D01*
X00056899*
X00057659Y00083059*
X00054869Y00081029D02*
X00055119Y00081279D01*
X00054869Y00076709D02*
Y00081029D01*
X00050809Y00072639D02*
X00054869Y00076709D01*
X00050799Y00072639D02*
X00050809D01*
X00054099Y00093219D02*
Y00102869D01*
X00051559Y00105409D02*
X00054099Y00102869D01*
X00048009Y00105409D02*
X00051559D01*
X00053089Y00092199D02*
X00054099Y00093219D01*
X00050039Y00092199D02*
X00053089D01*
X00035049Y00094599D02*
Y00104019D01*
Y00109469D02*
X00039619D01*
Y00113279*
Y00109469D02*
X00041659Y00107439D01*
X00036689Y00114919D02*
X00039619Y00117859D01*
X00035049Y00114919D02*
X00036689D01*
X00041659Y00058669D02*
X00044589D01*
X00038609Y00061719D02*
X00041659Y00058669D01*
X00034799Y00067559D02*
Y00068579D01*
X00038609Y00072389D02*
Y00074419D01*
X00034799Y00068579D02*
X00038609Y00072389D01*
X00035679Y00077839D02*
X00044699D01*
X00034799Y00076959D02*
X00035679Y00077839D01*
X00034799Y00075179D02*
Y00076959D01*
X00044589Y00086749D02*
X00050039D01*
X00041659Y00083819D02*
X00044589Y00086749D01*
X00034149Y00083819D02*
X00041659D01*
X00034039Y00083699D02*
X00034149Y00083819D01*
X00050549Y00063749D02*
X00057909D01*
X00044699Y00066939D02*
X00047359D01*
X00050549Y00063749*
X00044699Y00058789D02*
Y00066939D01*
G54D11*
X00081029Y00077219D02*
X00094489D01*
X00095499Y00078229*
X00108459Y00075689D02*
X00114049D01*
X00114809Y00066039D02*
Y00074929D01*
X00114049Y00075689D02*
X00114809Y00074929D01*
X00102619Y00064519D02*
X00113279D01*
X00114809Y00066039*
X00124969Y00122939D02*
X00126489Y00121409D01*
X00117089Y00122939D02*
X00124969D01*
X00116079Y00121919D02*
X00117089Y00122939D01*
X00116079Y00119379D02*
X00126999D01*
X00129029Y00121409*
X00123989Y00108199D02*
X00130269Y00114479D01*
X00138719*
X00140419Y00112779*
X00129289Y00069599D02*
X00133599D01*
Y00080009D02*
X00133989Y00080389D01*
X00136519*
X00137669Y00079249*
X00113539Y00121919D02*
X00116079D01*
X00110999D02*
X00113539D01*
X00100839D02*
X00103379D01*
X00105919*
X00108459D02*
X00110999D01*
X00105919D02*
X00108459D01*
X00083819Y00058419D02*
X00086359D01*
X00070869Y00076449D02*
X00100839D01*
X00068579Y00078739D02*
X00070869Y00076449D01*
X00068579Y00078739D02*
Y00085849D01*
X00044589Y00058669D02*
X00044699Y00058789D01*
X00106329Y00074929D02*
X00112029Y00069229D01*
X00098039Y00074929D02*
X00106329D01*
X00093469Y00075179D02*
X00097789D01*
X00098039Y00074929*
X00095249Y00086109D02*
Y00088899D01*
X00093469Y00084329D02*
X00095249Y00086109D01*
X00086869Y00083569D02*
X00087629Y00084329D01*
X00086869Y00082299D02*
Y00083569D01*
X00087629Y00084329D02*
X00093469D01*
X00069849Y00118619D02*
X00076199D01*
X00077979Y00116839*
Y00105409D02*
Y00116839D01*
X00070359Y00087629D02*
X00075949D01*
X00068579Y00085849D02*
X00070359Y00087629D01*
X00078739Y00088649D02*
Y00104649D01*
X00076709Y00086609D02*
X00078739Y00088649D01*
X00076709Y00081529D02*
Y00086609D01*
Y00081529D02*
X00081029Y00077219D01*
X00077979Y00105409D02*
X00078739Y00104649D01*
X00083059Y00088139D02*
X00085599D01*
X00087119Y00089659*
Y00098809*
X00078489Y00085849D02*
X00091189D01*
X00091439Y00086109*
X00086869Y00080009D02*
Y00082299D01*
Y00080009D02*
X00088139Y00078739D01*
X00093219*
G54D12*
X00035049Y00104019D03*
Y00109469D03*
X00050039Y00097649D03*
Y00092199D03*
X00055489Y00058669D03*
X00050039D03*
X00044699Y00077839D03*
Y00072389D03*
G54D13*
X00035049Y00114919D03*
X00050039Y00086749D03*
X00044699Y00066939D03*
G54D14*
X00100839Y00119379D03*
X00055119Y00081279D03*
X00082799Y00121669D03*
X00135129Y00079249D03*
X00086359Y00058419D03*
X00086869Y00082299D03*
X00072639Y00097539D03*
X00051309Y00067059D03*
X00054869Y00076709D03*
G54D15*
X00100839Y00121919D03*
X00103379Y00119379D03*
Y00121919D03*
X00105919Y00119379D03*
Y00121919D03*
X00108459Y00119379D03*
Y00121919D03*
X00110999Y00119379D03*
Y00121919D03*
X00113539Y00119379D03*
Y00121919D03*
X00116079Y00119379D03*
Y00121919D03*
X00057659Y00081279D03*
X00112029Y00062729D03*
X00135419Y00112779D03*
X00140419D03*
X00135419Y00101349D03*
X00140419D03*
X00129289Y00067059D03*
X00126749D03*
X00129289Y00069599D03*
X00090419Y00121669D03*
X00087879D03*
X00085339D03*
X00128989Y00108199D03*
X00123989D03*
X00135129Y00081789D03*
X00137669Y00079249D03*
Y00081789D03*
X00140209Y00079249D03*
Y00081789D03*
X00078739Y00058419D03*
X00081279D03*
X00083819D03*
X00080519Y00098299D03*
X00083059D03*
X00080519Y00095759D03*
X00083059D03*
X00080519Y00093219D03*
X00083059D03*
X00080519Y00090679D03*
X00083059D03*
X00080519Y00088139D03*
X00094489Y00082299D03*
X00091949D03*
X00089409D03*
X00129289Y00077219D03*
Y00079759D03*
Y00082299D03*
Y00084839D03*
Y00087379D03*
Y00089919D03*
Y00092459D03*
X00065019Y00102619D03*
Y00100079D03*
Y00097539D03*
X00072639Y00102619D03*
Y00100079D03*
X00058409Y00067059D03*
X00061969Y00076709D03*
G54D16*
X00123949Y00121409D03*
G54D17*
X00126489Y00121409D03*
X00129029D03*
G54D18*
X00057909Y00063749D03*
X00070609D03*
X00041659Y00083819D03*
Y00096519D03*
X00091439Y00063499D03*
X00078739D03*
X00063499Y00058419D03*
X00076199D03*
X00060709Y00105409D03*
X00048009D03*
X00038609Y00061719D03*
Y00074419D03*
X00052319Y00113279D03*
X00039619D03*
X00052319Y00117859D03*
X00039619D03*
G54D19*
X00112029Y00069229D03*
X00126749Y00069599D03*
X00083059Y00088139D03*
X00129289Y00074679D03*
G54D20*
X00035049Y00094599D03*
Y00089149D03*
G54D21*
X00035049Y00083699D03*
G54D22*
X00041659Y00099819D03*
Y00107439D03*
X00066799Y00069849D03*
X00069339D03*
X00058419Y00072639D03*
X00050799D03*
X00034799Y00067559D03*
Y00075179D03*
G54D23*
X00044589Y00058669D03*
G54D24*
X00064259Y00069849D03*
G54D25*
X00054709Y00117859D03*
Y00111249D03*
G54D26*
X00065169Y00117859D03*
Y00111249D03*
G54D27*
X00141479Y00121159D03*
X00032509D03*
Y00057909D03*
X00141479D03*
G54D28*
X00093219Y00078739D03*
X00095499Y00078229D03*
X00108459Y00075689D03*
X00102619Y00064519D03*
X00100839Y00076449D03*
X00095249Y00088899D03*
X00078489Y00085849D03*
X00093469Y00075179D03*
X00098039Y00074929D03*
X00069849Y00118619D03*
X00075949Y00087629D03*
X00120649Y00081789D03*
X00117089Y00075949D03*
Y00095759D03*
X00100579Y00107949D03*
X00077979D03*
X00091949Y00099569D03*
X00077979Y00120899D03*
X00132839Y00060449D03*
X00087119Y00098809D03*
X00110999Y00099819D03*
X00103749Y00085849D03*
X00091439Y00086109D03*
M02*