%FSTAX53Y53*%
%MOMM*%
%SFA1B1*%

%IPPOS*%
%ADD10C,3.199994*%
%ADD11R,3.199994X3.199994*%
%ADD12R,1.699997X1.699997*%
%ADD13C,1.699997*%
%ADD14R,1.799996X1.799996*%
%ADD15C,1.799996*%
%ADD16C,1.599997*%
%ADD17R,1.699997X1.699997*%
%ADD18C,3.199994*%
%ADD19R,3.199994X3.199994*%
%ADD20C,1.399997*%
%ADD21R,3.199994X3.199994*%
%ADD22R,1.399997X1.399997*%
%ADD23C,2.199996*%
%ADD24R,2.199996X2.199996*%
%ADD25C,5.279989*%
%ADD26C,1.469997*%
%LNmain_board_pcb-1*%
%LPD*%
G54D10*
X00035049Y00104019D03*
Y00109469D03*
X00050039Y00097649D03*
Y00092199D03*
X00055489Y00058669D03*
X00050039D03*
X00044699Y00077839D03*
Y00072389D03*
G54D11*
X00035049Y00114919D03*
X00050039Y00086749D03*
X00044699Y00066939D03*
G54D12*
X00100839Y00119379D03*
X00055119Y00081279D03*
X00082799Y00121669D03*
X00135129Y00079249D03*
X00086359Y00058419D03*
X00086869Y00082299D03*
X00072639Y00097539D03*
X00051309Y00067059D03*
X00054869Y00076709D03*
G54D13*
X00100839Y00121919D03*
X00103379Y00119379D03*
Y00121919D03*
X00105919Y00119379D03*
Y00121919D03*
X00108459Y00119379D03*
Y00121919D03*
X00110999Y00119379D03*
Y00121919D03*
X00113539Y00119379D03*
Y00121919D03*
X00116079Y00119379D03*
Y00121919D03*
X00057659Y00081279D03*
X00112029Y00062729D03*
X00135419Y00112779D03*
X00140419D03*
X00135419Y00101349D03*
X00140419D03*
X00129289Y00067059D03*
X00126749D03*
X00129289Y00069599D03*
X00090419Y00121669D03*
X00087879D03*
X00085339D03*
X00128989Y00108199D03*
X00123989D03*
X00135129Y00081789D03*
X00137669Y00079249D03*
Y00081789D03*
X00140209Y00079249D03*
Y00081789D03*
X00078739Y00058419D03*
X00081279D03*
X00083819D03*
X00080519Y00098299D03*
X00083059D03*
X00080519Y00095759D03*
X00083059D03*
X00080519Y00093219D03*
X00083059D03*
X00080519Y00090679D03*
X00083059D03*
X00080519Y00088139D03*
X00094489Y00082299D03*
X00091949D03*
X00089409D03*
X00129289Y00077219D03*
Y00079759D03*
Y00082299D03*
Y00084839D03*
Y00087379D03*
Y00089919D03*
Y00092459D03*
X00065019Y00102619D03*
Y00100079D03*
Y00097539D03*
X00072639Y00102619D03*
Y00100079D03*
X00058409Y00067059D03*
X00061969Y00076709D03*
G54D14*
X00123949Y00121409D03*
G54D15*
X00126489Y00121409D03*
X00129029D03*
G54D16*
X00057909Y00063749D03*
X00070609D03*
X00041659Y00083819D03*
Y00096519D03*
X00091439Y00063499D03*
X00078739D03*
X00063499Y00058419D03*
X00076199D03*
X00060709Y00105409D03*
X00048009D03*
X00038609Y00061719D03*
Y00074419D03*
X00052319Y00113279D03*
X00039619D03*
X00052319Y00117859D03*
X00039619D03*
G54D17*
X00112029Y00069229D03*
X00126749Y00069599D03*
X00083059Y00088139D03*
X00129289Y00074679D03*
G54D18*
X00035049Y00094599D03*
Y00089149D03*
G54D19*
X00035049Y00083699D03*
G54D20*
X00041659Y00099819D03*
Y00107439D03*
X00066799Y00069849D03*
X00069339D03*
X00058419Y00072639D03*
X00050799D03*
X00034799Y00067559D03*
Y00075179D03*
G54D21*
X00044589Y00058669D03*
G54D22*
X00064259Y00069849D03*
G54D23*
X00054709Y00117859D03*
Y00111249D03*
G54D24*
X00065169Y00117859D03*
Y00111249D03*
G54D25*
X00141479Y00121159D03*
X00032509D03*
Y00057909D03*
X00141479D03*
G54D26*
X00093219Y00078739D03*
X00095499Y00078229D03*
X00108459Y00075689D03*
X00102619Y00064519D03*
X00100839Y00076449D03*
X00095249Y00088899D03*
X00078489Y00085849D03*
X00093469Y00075179D03*
X00098039Y00074929D03*
X00069849Y00118619D03*
X00075949Y00087629D03*
X00120649Y00081789D03*
X00117089Y00075949D03*
Y00095759D03*
X00100579Y00107949D03*
X00077979D03*
X00091949Y00099569D03*
X00077979Y00120899D03*
X00132839Y00060449D03*
X00087119Y00098809D03*
X00110999Y00099819D03*
X00103749Y00085849D03*
X00091439Y00086109D03*
M02*