M48
;Layer_Color=9474304
;FILE_FORMAT=4:2
METRIC,LZ
;TYPE=PLATED
T1F00S00C0.70
T2F00S00C0.71
T3F00S00C0.85
T4F00S00C0.90
T5F00S00C1.00
T6F00S00C1.20
T7F00S00C1.90
T8F00S00C3.10
%
T01
X011203Y006273
Y006923
X006934Y006985
X00668
X006426
X005842Y007264
X00508
X00348Y007518
Y006756
X004166Y009982
Y010744
T02
X013284Y006045
X011709Y007595
X010846Y007569
X010084Y007645
X009804Y007493
X009347Y007518
X009322Y007874
X00955Y007823
X010262Y006452
X007849Y008585
X007595Y008763
X007798Y010795
X006985Y011862
X008712Y009881
X009195Y009957
X009144Y008611
X009525Y00889
X010375Y008585
X0111Y009982
X011709Y009576
X010058Y010795
X012065Y008179
X007798Y01209
T03
X009144Y00635
X007874
X00762Y005842
X007061Y006375
X00635Y005842
X005791Y006375
X003861Y006172
Y007442
X003962Y011328
Y011786
X005232
Y011328
X004801Y010541
X006071
X004166Y009652
Y008382
T04
X012675Y006706
Y00696
X012929
Y006706
Y007468
Y007722
X013513Y007925
X013767
X014021
X008636Y005842
X008382
X008128
X007874
X005841Y006706
X005131
X005487Y007671
X006197
X005766Y008128
X005512
X006502Y009754
Y010008
Y010262
X007264
Y010008
Y009754
X008052Y00983
Y009576
Y009322
Y009068
Y008814
X008306
Y009068
Y009322
Y009576
Y00983
X008687Y00823
X008941
X009195
X009449
X012929
Y008484
Y008738
Y008992
Y009246
Y007976
X013513Y008179
X013767
X014021
X014042Y010135
X013542
Y011278
X014042
X012899Y01082
X012399
X011608Y011938
Y012192
X011354
Y011938
X0111
Y012192
X010846
Y011938
X010592
Y012192
X010338
Y011938
X010084
Y012192
X009042Y012167
X008788
X008534
X00828
T05
X012395Y012141
X012649
X012903
T06
X005471Y011125
Y011786
X006517
Y011125
T07
X004459Y005867
X005004
X005549
X00447Y006694
Y007239
Y007784
X003505Y00837
Y008915
Y00946
Y010402
Y010947
Y011492
X005004Y009765
Y00922
Y008675
T08
X014148Y005791
X003251
X014148Y012116
X003251
M30
