%FSTAX53Y53*%
%MOMM*%
%SFA1B1*%

%IPPOS*%
%ADD10R,1.399997X1.599997*%
%ADD11R,1.699997X1.499997*%
%ADD12R,1.599997X1.399997*%
%ADD13R,0.799998X1.649997*%
%ADD14R,1.649997X0.749999*%
%ADD15O,2.399995X0.799998*%
%ADD16R,1.699997X1.699997*%
%ADD17R,3.199994X5.199990*%
%ADD18R,1.499997X1.699997*%
%ADD19O,2.099996X0.799998*%
%ADD20R,1.649997X0.799998*%
%ADD21R,3.499993X2.599995*%
%ADD22R,5.699989X2.199996*%
%ADD23O,0.749999X1.949996*%
%ADD24O,1.949996X0.749999*%
%ADD25C,3.199994*%
%ADD26R,3.199994X3.199994*%
%ADD27R,1.699997X1.699997*%
%ADD28C,1.699997*%
%ADD29R,1.799996X1.799996*%
%ADD30C,1.799996*%
%ADD31C,1.599997*%
%ADD32C,3.199994*%
%ADD33R,3.199994X3.199994*%
%ADD34C,1.399997*%
%ADD35R,3.199994X3.199994*%
%ADD36R,1.399997X1.399997*%
%ADD37C,2.199996*%
%ADD38R,2.199996X2.199996*%
%ADD39C,5.279989*%
%ADD40C,1.469997*%
%LNmain_board_pcb-1*%
%LPD*%
G54D10*
X00089019Y00078229D03*
X00090819D03*
X00077349Y00093979D03*
X00075549D03*
X00100719Y00061719D03*
X00098919D03*
X00094599Y00064259D03*
X00096399D03*
X00089019Y00075439D03*
X00090819D03*
X00125339Y00058169D03*
X00127139D03*
X00095899Y00111509D03*
X00094099D03*
X00091829D03*
X00090029D03*
X00122289Y00067059D03*
X00124089D03*
X00122289Y00069599D03*
X00124089D03*
X00124579Y00077219D03*
X00126379D03*
X00124579Y00074679D03*
X00126379D03*
X00083699Y00111509D03*
X00081899D03*
X00124579Y00092459D03*
X00126379D03*
X00124579Y00089919D03*
X00126379D03*
X00124579Y00087379D03*
X00126379D03*
X00124579Y00082299D03*
X00126379D03*
X00124579Y00084839D03*
X00126379D03*
X00124579Y00079759D03*
X00126379D03*
X00087769Y00111509D03*
X00085969D03*
G54D11*
X00092959Y00090099D03*
Y00088199D03*
X00081529Y00071049D03*
Y00069149D03*
X00106169Y00075499D03*
Y00077399D03*
X00102359Y00072579D03*
Y00070679D03*
X00090169Y00093909D03*
Y00092009D03*
X00114549Y00090609D03*
Y00088709D03*
X00116839Y00087439D03*
Y00089339D03*
X00104649Y00101919D03*
Y00103819D03*
G54D12*
X00075949Y00089779D03*
Y00091579D03*
X00072639Y00089779D03*
Y00091579D03*
X00072389Y00120259D03*
Y00122059D03*
X00069849Y00120259D03*
Y00122059D03*
X00085849Y00105269D03*
Y00107069D03*
X00127249Y00062619D03*
Y00060819D03*
X00113539Y00116219D03*
Y00114419D03*
X00110999Y00116219D03*
Y00114419D03*
X00108459Y00116219D03*
Y00114419D03*
X00105919Y00116219D03*
Y00114419D03*
X00103379Y00116219D03*
Y00114419D03*
X00100839Y00116219D03*
Y00114419D03*
X00127249Y00095619D03*
Y00097419D03*
X00099819Y00070729D03*
Y00072529D03*
X00092959Y00092059D03*
Y00093859D03*
X00069089Y00108829D03*
Y00110629D03*
X00072389Y00108829D03*
Y00110629D03*
X00081789Y00105269D03*
Y00107069D03*
X00090169Y00105269D03*
Y00107069D03*
X00093979Y00105269D03*
Y00107069D03*
G54D13*
X00099819Y00068489D03*
X00100769Y00066139D03*
X00098869D03*
X00082799Y00116749D03*
X00083749Y00114389D03*
X00081849D03*
X00086869Y00116749D03*
X00087819Y00114389D03*
X00085919D03*
X00094999Y00116749D03*
X00095949Y00114389D03*
X00094049D03*
X00090929Y00116749D03*
X00091879Y00114389D03*
X00089979D03*
X00076449Y00099219D03*
X00077399Y00096869D03*
X00075499D03*
G54D14*
X00100739Y00058169D03*
X00098389D03*
X00093569D03*
X00095919D03*
G54D15*
X00089059Y00072769D03*
Y00071499D03*
Y00070229D03*
Y00068959D03*
X00095859Y00072769D03*
Y00071499D03*
Y00070229D03*
Y00068959D03*
G54D16*
X00084839Y00073889D03*
Y00070389D03*
X00112029Y00069229D03*
X00126749Y00069599D03*
X00083059Y00088139D03*
X00129289Y00074679D03*
G54D17*
X00112269Y00071879D03*
Y00060079D03*
G54D18*
X00081719Y00078489D03*
X00079819D03*
X00072199D03*
X00074099D03*
X00124269Y00115819D03*
X00126169D03*
X00127189Y00100579D03*
X00125289D03*
G54D19*
X00069789Y00117219D03*
Y00115949D03*
Y00114679D03*
Y00113409D03*
X00074489Y00117219D03*
Y00115949D03*
Y00114679D03*
Y00113409D03*
G54D20*
X00121509Y00061719D03*
X00123859Y00062669D03*
Y00060769D03*
G54D21*
X00140459Y00085679D03*
Y00092629D03*
X00135379Y00085679D03*
Y00092629D03*
X00140209Y00067899D03*
Y00074849D03*
X00135379Y00067899D03*
Y00074849D03*
G54D22*
X00081709Y00082549D03*
X00072209D03*
G54D23*
X00100649Y00093029D03*
X00101449D03*
X00102249D03*
X00103049D03*
X00103849D03*
X00104649D03*
X00105449D03*
X00106249D03*
X00107049D03*
X00107849D03*
X00108649D03*
Y00081729D03*
X00107849D03*
X00107049D03*
X00106249D03*
X00105449D03*
X00104649D03*
X00103849D03*
X00103049D03*
X00102249D03*
X00101449D03*
X00100649D03*
G54D24*
X00110299Y00091379D03*
Y00090579D03*
Y00089779D03*
Y00088979D03*
Y00088179D03*
Y00087379D03*
Y00086579D03*
Y00085779D03*
Y00084979D03*
Y00084179D03*
Y00083379D03*
X00098999D03*
Y00084179D03*
Y00084979D03*
Y00085779D03*
Y00086579D03*
Y00087379D03*
Y00088179D03*
Y00088979D03*
Y00089779D03*
Y00090579D03*
Y00091379D03*
G54D25*
X00035049Y00104019D03*
Y00109469D03*
X00050039Y00097649D03*
Y00092199D03*
X00055489Y00058669D03*
X00050039D03*
X00044699Y00077839D03*
Y00072389D03*
G54D26*
X00035049Y00114919D03*
X00050039Y00086749D03*
X00044699Y00066939D03*
G54D27*
X00100839Y00119379D03*
X00055119Y00081279D03*
X00082799Y00121669D03*
X00135129Y00079249D03*
X00086359Y00058419D03*
X00086869Y00082299D03*
X00072639Y00097539D03*
X00051309Y00067059D03*
X00054869Y00076709D03*
G54D28*
X00100839Y00121919D03*
X00103379Y00119379D03*
Y00121919D03*
X00105919Y00119379D03*
Y00121919D03*
X00108459Y00119379D03*
Y00121919D03*
X00110999Y00119379D03*
Y00121919D03*
X00113539Y00119379D03*
Y00121919D03*
X00116079Y00119379D03*
Y00121919D03*
X00057659Y00081279D03*
X00112029Y00062729D03*
X00135419Y00112779D03*
X00140419D03*
X00135419Y00101349D03*
X00140419D03*
X00129289Y00067059D03*
X00126749D03*
X00129289Y00069599D03*
X00090419Y00121669D03*
X00087879D03*
X00085339D03*
X00128989Y00108199D03*
X00123989D03*
X00135129Y00081789D03*
X00137669Y00079249D03*
Y00081789D03*
X00140209Y00079249D03*
Y00081789D03*
X00078739Y00058419D03*
X00081279D03*
X00083819D03*
X00080519Y00098299D03*
X00083059D03*
X00080519Y00095759D03*
X00083059D03*
X00080519Y00093219D03*
X00083059D03*
X00080519Y00090679D03*
X00083059D03*
X00080519Y00088139D03*
X00094489Y00082299D03*
X00091949D03*
X00089409D03*
X00129289Y00077219D03*
Y00079759D03*
Y00082299D03*
Y00084839D03*
Y00087379D03*
Y00089919D03*
Y00092459D03*
X00065019Y00102619D03*
Y00100079D03*
Y00097539D03*
X00072639Y00102619D03*
Y00100079D03*
X00058409Y00067059D03*
X00061969Y00076709D03*
G54D29*
X00123949Y00121409D03*
G54D30*
X00126489Y00121409D03*
X00129029D03*
G54D31*
X00057909Y00063749D03*
X00070609D03*
X00041659Y00083819D03*
Y00096519D03*
X00091439Y00063499D03*
X00078739D03*
X00063499Y00058419D03*
X00076199D03*
X00060709Y00105409D03*
X00048009D03*
X00038609Y00061719D03*
Y00074419D03*
X00052319Y00113279D03*
X00039619D03*
X00052319Y00117859D03*
X00039619D03*
G54D32*
X00035049Y00094599D03*
Y00089149D03*
G54D33*
X00035049Y00083699D03*
G54D34*
X00041659Y00099819D03*
Y00107439D03*
X00066799Y00069849D03*
X00069339D03*
X00058419Y00072639D03*
X00050799D03*
X00034799Y00067559D03*
Y00075179D03*
G54D35*
X00044589Y00058669D03*
G54D36*
X00064259Y00069849D03*
G54D37*
X00054709Y00117859D03*
Y00111249D03*
G54D38*
X00065169Y00117859D03*
Y00111249D03*
G54D39*
X00141479Y00121159D03*
X00032509D03*
Y00057909D03*
X00141479D03*
G54D40*
X00093219Y00078739D03*
X00095499Y00078229D03*
X00108459Y00075689D03*
X00102619Y00064519D03*
X00100839Y00076449D03*
X00095249Y00088899D03*
X00078489Y00085849D03*
X00093469Y00075179D03*
X00098039Y00074929D03*
X00069849Y00118619D03*
X00075949Y00087629D03*
X00120649Y00081789D03*
X00117089Y00075949D03*
Y00095759D03*
X00100579Y00107949D03*
X00077979D03*
X00091949Y00099569D03*
X00077979Y00120899D03*
X00132839Y00060449D03*
X00087119Y00098809D03*
X00110999Y00099819D03*
X00103749Y00085849D03*
X00091439Y00086109D03*
M02*